<?xml version="1.0" encoding="UTF-8"?>
<svg id="_图层_1" data-name="图层 1" xmlns="http://www.w3.org/2000/svg" viewBox="0 0 200 200">
  <defs>
    <style>
      .cls-1 {
        fill: #36f26b;
      }
    </style>
  </defs>
  <circle class="cls-1" cx="100" cy="101.46" r="90"/>
  <path d="M132.78,75.35c-6.11-.48-17.81-2.66-27.52-11.88-3.29-3.13-8.46-3.13-11.77,0-9.7,9.22-21.4,11.39-27.5,11.87-4.62.36-8.19,4.4-7.96,9.02,2.09,42.05,29.55,56.46,37.92,59.88,1.11.45,2.27.67,3.43.67s2.32-.23,3.43-.67t0,0c8.36-3.42,35.82-17.84,37.91-59.88.24-4.62-3.33-8.66-7.95-9.02ZM99.95,137.24c-.38.17-.75.16-1.14,0-7.32-2.99-31.35-15.66-33.23-53.26-.02-.54.44-1.05.99-1.09,7.11-.56,20.74-3.11,32.13-13.93.18-.17.43-.26.68-.26s.49.08.67.25c11.39,10.83,25.02,13.38,32.14,13.94.55.04,1,.55.98,1.1-1.88,37.57-25.9,50.26-33.23,53.25Z"/>
  <path d="M113.07,91.72l-17.83,16.2-8.19-8.2c-1.48-1.48-3.87-1.48-5.35,0-1.48,1.47-1.48,3.87,0,5.35l10.74,10.75c.74.74,1.71,1.11,2.67,1.11.91,0,1.82-.33,2.54-.98l20.49-18.62c1.55-1.41,1.66-3.8.26-5.34-1.4-1.54-3.8-1.65-5.34-.25Z"/>
</svg>